<svg width="50" opacity="0.5" height="49" viewBox="0 0 50 49" fill="none" xmlns="http://www.w3.org/2000/svg">
<path id="Vector" d="M43.1066 20.1786C40.4166 19.0686 37.6166 18.8186 34.7566 19.4786C34.1666 19.6186 33.5766 19.7186 32.9866 19.8486C33.5466 19.0386 33.8966 18.1986 34.2066 17.3286C34.5066 16.4586 34.8566 15.6086 35.1566 14.7486C35.5366 13.6586 35.8866 12.5386 36.0266 11.3786C36.2666 9.43863 35.7766 7.61861 35.1466 5.82861C34.7566 4.73861 34.0466 3.85861 33.0866 3.17861C32.1466 2.51861 31.0966 2.08862 30.0766 1.58862C29.0366 1.07862 27.9466 0.818619 26.7866 0.808619C23.7666 0.778619 21.2266 1.80862 19.3566 4.24862C18.6766 5.13862 18.2766 6.17862 17.9766 7.24862C17.5966 8.60862 17.3066 9.97861 17.2366 11.3886C17.1966 12.0986 17.0266 12.1986 16.3666 11.9286C15.7666 11.6786 15.1966 11.3686 14.6066 11.0886C12.8866 10.2986 11.0866 9.91861 9.1766 9.95861C7.5666 9.98861 6.09657 10.4986 4.61657 11.0186C2.00657 11.9286 -0.053423 14.7386 0.056577 17.4886C0.176577 20.3286 0.946592 23.0186 2.44659 25.4686C3.52659 27.2186 5.04658 28.3986 6.99658 29.0586C7.91658 29.3686 8.8366 29.6986 9.7366 30.0586C11.1366 30.6286 12.5866 30.8686 14.0866 30.9286C15.0266 30.9686 15.9666 31.0286 17.0566 31.0786C16.8266 31.3286 16.7266 31.4586 16.6066 31.5686C14.8966 33.1386 13.7666 35.0886 12.8166 37.1686C12.4266 38.0186 12.2766 38.9086 12.3366 39.8486C12.4266 41.2386 12.8466 42.5386 13.2266 43.8686C13.8666 46.1286 16.9366 48.3286 19.1466 48.4386C20.7766 48.5186 22.3066 48.2586 23.8366 47.7386C25.0466 47.3286 26.0566 46.6786 26.9566 45.7886C28.9766 43.7886 30.5166 41.4486 32.0466 39.0886C32.5766 38.2886 32.5566 38.3086 33.3766 38.7386C34.2866 39.2186 35.2066 39.6686 36.2166 39.8986C39.0466 40.5486 44.1266 39.6786 46.4466 36.7286C46.5466 36.5986 46.6666 36.4886 46.7866 36.3786C48.5866 34.7186 49.4266 32.5986 49.6866 30.2086C49.7466 29.6086 49.6866 29.0186 49.5366 28.4486C49.1466 27.0586 48.6166 25.7486 47.8466 24.5186C46.6566 22.6186 45.1666 21.0186 43.0766 20.1586L43.1066 20.1786ZM27.3766 27.8786C27.1866 28.1286 26.9666 28.3086 26.6666 28.3786C26.1966 28.4786 25.7066 28.6586 25.2366 28.6386C23.8866 28.5986 22.5366 28.4686 21.3366 27.7286C20.9466 27.4886 20.6566 27.1986 20.5166 26.7686C20.3166 26.1586 20.0466 25.5586 20.0966 24.8886C20.1766 23.8486 20.6466 23.0986 21.6766 22.7586C21.9366 22.6686 22.1866 22.5886 22.4466 22.4986C23.6166 22.0786 24.7866 21.8986 26.0266 22.2186C26.8566 22.4286 27.4066 22.9286 27.6766 23.7286C27.7966 24.0886 27.9266 24.4386 28.0166 24.8086C28.3766 26.3186 28.3066 26.6386 27.3866 27.8886L27.3766 27.8786Z" fill="#AC7E46"/>
</svg>
